<?xml version="1.0" encoding="UTF-8"?>
<svg xmlns="http://www.w3.org/2000/svg" xmlns:xlink="http://www.w3.org/1999/xlink" version="1.1" viewBox="0 0 1036.87 250.01">
  <!-- Generator: Adobe Illustrator 29.5.0, SVG Export Plug-In . SVG Version: 2.1.0 Build 137)  -->
  <defs>
    <style>
      .st0 {
        fill: url(#linear-gradient);
      }

      .st1 {
        fill: #fff;
      }
    </style>
    <linearGradient id="linear-gradient" x1="47.68" y1="1926.92" x2="202.32" y2="1659.09" gradientTransform="translate(0 -1668)" gradientUnits="userSpaceOnUse">
      <stop offset="0" stop-color="#194e70"/>
      <stop offset="1" stop-color="#65214c"/>
    </linearGradient>
  </defs>
  <g id="Layer_2">
    <g>
      <path class="st0" d="M197.63,183.52c-5.09-9.67-7.67-20.61-7.67-32.53s2.58-23.08,7.67-32.75c5.14-9.77,12.34-17.61,21.38-23.3,9.09-5.71,19.52-8.62,30.99-8.65v-42.22c0-24.34-19.73-44.07-44.07-44.07H44.07C19.73,0,0,19.74,0,44.08v161.86c0,24.34,19.73,44.07,44.07,44.07h161.86c21.07,0,38.68-14.79,43.03-34.55-11-.16-21.07-3.06-29.94-8.64-9.05-5.69-16.24-13.52-21.38-23.3h0ZM159.26,205.22l-50.53-65.92h-5.27v65.92h-30.6V47.05h62.1c10.05,0,18.94,1.99,26.66,5.96,7.72,3.98,13.73,9.42,18,16.31,4.27,6.9,6.41,14.85,6.41,23.85s-2.14,17.36-6.41,24.19-10.31,12.19-18.11,16.09c-5.35,2.68-11.32,4.41-17.88,5.25l52.75,66.52h-37.12ZM149.36,109.49c-4.05,3.83-9.9,5.74-17.55,5.74h-28.35v-43.2h28.58c7.5,0,13.27,2.06,17.33,6.19,4.05,4.13,6.07,9.34,6.07,15.64s-2.02,11.81-6.07,15.64h0Z"/>
      <path class="st1" d="M161.51,133.45c7.8-3.9,13.84-9.26,18.11-16.09,4.27-6.82,6.41-14.89,6.41-24.19s-2.14-16.95-6.41-23.85-10.28-12.34-18-16.31c-7.73-3.97-16.61-5.96-26.66-5.96h-62.1v158.17h30.6v-65.92h5.27l50.53,65.92h37.12l-52.75-66.52c6.55-.84,12.52-2.57,17.88-5.25h0ZM103.46,115.22v-43.2h28.58c7.5,0,13.27,2.06,17.33,6.19,4.05,4.13,6.07,9.34,6.07,15.64s-2.02,11.81-6.07,15.64-9.9,5.74-17.55,5.74h-28.36,0Z"/>
      <path class="st1" d="M281.43,106.82c-3.01-3.11-6.53-5.72-10.57-7.79-6.15-3.15-13.05-4.72-20.7-4.72-10.05,0-19.01,2.47-26.89,7.42s-14.06,11.7-18.56,20.25c-4.5,8.55-6.75,18.22-6.75,29.02s2.25,20.25,6.75,28.8,10.69,15.3,18.56,20.25,16.76,7.42,26.66,7.42c7.8,0,14.81-1.58,21.04-4.72,4.02-2.04,7.5-4.6,10.46-7.67v10.14h29.7v-108.67h-29.7v10.27ZM275.58,171.92c-5.1,5.55-11.78,8.33-20.02,8.33-5.25,0-9.98-1.27-14.17-3.83-4.2-2.55-7.46-6-9.79-10.35-2.33-4.35-3.49-9.45-3.49-15.3s1.16-10.72,3.49-15.08c2.32-4.35,5.55-7.8,9.67-10.35,4.12-2.55,8.89-3.83,14.29-3.83s10.35,1.24,14.4,3.71c4.05,2.47,7.27,5.96,9.68,10.46,2.4,4.5,3.6,9.6,3.6,15.3,0,8.4-2.55,15.38-7.65,20.92v.02h-.01Z"/>
      <path class="st1" d="M404.28,105.91c-2.82-2.64-6.03-4.91-9.67-6.78-6.3-3.22-13.35-4.84-21.15-4.84-10.05,0-19.01,2.47-26.89,7.42s-14.14,11.7-18.79,20.25-6.97,18.22-6.97,29.02,2.32,20.25,6.97,28.8,10.91,15.3,18.79,20.25,16.84,7.42,26.89,7.42c7.95,0,15.07-1.61,21.38-4.84,3.66-1.87,6.88-4.18,9.67-6.89v9.47h29.7V42.55h-29.93v63.36h0ZM402.82,166.07c-2.33,4.35-5.59,7.8-9.79,10.35s-9,3.83-14.4,3.83-9.98-1.24-14.17-3.71c-4.2-2.47-7.46-5.92-9.79-10.35-2.33-4.42-3.49-9.56-3.49-15.41s1.16-10.76,3.49-15.19c2.32-4.42,5.55-7.88,9.67-10.35,4.12-2.48,8.96-3.71,14.51-3.71s10.16,1.28,14.29,3.83c4.12,2.55,7.35,6,9.67,10.35s3.49,9.45,3.49,15.3-1.16,10.73-3.49,15.07h0Z"/>
    </g>
  </g>
  <g id="Layer_4">
    <g>
      <polygon class="st1" points="527.89 162.16 465.21 59.37 456.87 59.37 456.87 209.09 468.5 209.09 468.5 84.34 523.6 175.06 532.17 175.06 587.27 84.34 587.27 209.09 598.9 209.09 598.9 59.37 590.56 59.37 527.89 162.16"/>
      <path class="st1" d="M720.52,127.45c-.99-1.94-2.12-3.78-3.4-5.51-4.03-5.41-9.15-9.62-15.37-12.62-6.22-3-13.28-4.5-21.19-4.5-9.66,0-18.37,2.38-26.12,7.14-7.76,4.76-13.91,11.16-18.44,19.21-4.54,8.05-6.81,17.05-6.81,27s2.27,19.14,6.81,27.11c4.53,7.98,10.68,14.31,18.44,18.99,7.76,4.69,16.61,7.02,26.56,7.02,7.61,0,14.49-1.5,20.64-4.5,6.15-3,11.23-7.24,15.26-12.73,1.37-1.87,2.57-3.85,3.62-5.95v20.99h11.2v-102.08h-11.2v20.44ZM710.54,189c-6.95,7.83-16.28,11.74-27.99,11.74-8.05,0-15.22-1.83-21.51-5.49-6.29-3.66-11.23-8.71-14.82-15.15-3.59-6.44-5.38-13.83-5.38-22.17s1.79-15.51,5.38-21.95c3.59-6.44,8.49-11.49,14.71-15.15,6.22-3.66,13.35-5.49,21.4-5.49s14.52,1.79,20.31,5.38c5.78,3.59,10.28,8.6,13.5,15.04,3.22,6.44,4.83,13.91,4.83,22.39,0,12.73-3.48,23.02-10.43,30.84Z"/>
      <polygon class="st1" points="791.87 63.76 780.67 63.76 780.67 107.01 754.33 107.01 754.33 116.88 780.67 116.88 780.67 209.09 791.87 209.09 791.87 116.88 818.21 116.88 818.21 107.01 791.87 107.01 791.87 63.76"/>
      <path class="st1" d="M904.38,197.34c-5.34,2.27-11.09,3.4-17.23,3.4-7.9,0-14.97-1.9-21.18-5.71-6.22-3.8-11.16-8.92-14.82-15.37-3.66-6.44-5.49-13.76-5.49-21.95s1.83-15.44,5.49-21.73c3.66-6.29,8.6-11.31,14.82-15.04,6.22-3.73,13.28-5.6,21.18-5.6,6,0,11.64,1.14,16.91,3.4,5.27,2.27,9.8,5.45,13.61,9.55l7.46-7.46c-4.68-5.12-10.32-9.07-16.9-11.85-6.59-2.78-13.61-4.17-21.08-4.17-9.95,0-18.92,2.34-26.89,7.02-7.98,4.69-14.31,11.01-18.99,18.99-4.69,7.98-7.02,16.94-7.02,26.89s2.34,18.99,7.02,27.11c4.68,8.12,11.01,14.57,18.99,19.32,7.98,4.76,16.94,7.13,26.89,7.13,7.46,0,14.52-1.43,21.19-4.28,6.66-2.85,12.4-6.84,17.23-11.96l-7.46-7.46c-3.81,4.25-8.38,7.5-13.72,9.77Z"/>
      <path class="st1" d="M1031.82,125.23c-3.37-6.44-8.09-11.45-14.16-15.04-6.08-3.58-13.14-5.38-21.18-5.38s-15.04,1.76-21.41,5.27c-6.24,3.45-11.18,8.13-14.82,14.04V54.98h-11.2v154.11h11.2v-60.59c0-6.59,1.43-12.37,4.28-17.34,2.85-4.97,6.81-8.89,11.85-11.75,5.05-2.85,10.87-4.28,17.45-4.28,9.66,0,17.38,3.07,23.16,9.22,5.78,6.15,8.67,14.2,8.67,24.15v60.59h11.2v-61.91c0-8.19-1.68-15.51-5.05-21.95Z"/>
    </g>
  </g>
</svg>